<svg xmlns="http://www.w3.org/2000/svg" width="1200" height="630" viewBox="0 0 1200 630" role="img" aria-labelledby="title desc">
  <title id="title">Futureproof Me ~ get more human, not less</title>
  <desc id="desc">Open Graph image for the Futureproof Me founding cohort from Chiibitsu Labs.</desc>
  <defs>
    <radialGradient id="glow" cx="50%" cy="8%" r="72%">
      <stop offset="0%" stop-color="#e7dcff"/>
      <stop offset="44%" stop-color="#f3edff"/>
      <stop offset="100%" stop-color="#fffdf9"/>
    </radialGradient>
    <linearGradient id="violet" x1="0%" y1="0%" x2="100%" y2="100%">
      <stop offset="0%" stop-color="#8b5cf6"/>
      <stop offset="100%" stop-color="#7c3aed"/>
    </linearGradient>
    <filter id="softShadow" x="-20%" y="-20%" width="140%" height="150%">
      <feDropShadow dx="0" dy="28" stdDeviation="28" flood-color="#5b2a9e" flood-opacity="0.24"/>
    </filter>
  </defs>

  <rect width="1200" height="630" fill="url(#glow)"/>
  <circle cx="600" cy="-58" r="360" fill="#a78bfa" opacity="0.22"/>
  <circle cx="1048" cy="128" r="112" fill="#ffd9c2" opacity="0.72"/>
  <circle cx="126" cy="520" r="148" fill="#f7c8e0" opacity="0.52"/>
  <circle cx="1010" cy="546" r="210" fill="#d3c0fb" opacity="0.34"/>

  <g opacity="0.72" fill="#b69cf6">
    <path d="M192 132c16 0 22-6 22-22 0 16 6 22 22 22-16 0-22 6-22 22 0-16-6-22-22-22Z"/>
    <path d="M956 88c20 0 28-8 28-28 0 20 8 28 28 28-20 0-28 8-28 28 0-20-8-28-28-28Z"/>
    <path d="M1026 440c14 0 19-5 19-19 0 14 5 19 19 19-14 0-19 5-19 19 0-14-5-19-19-19Z"/>
    <path d="M128 326c12 0 16-4 16-16 0 12 4 16 16 16-12 0-16 4-16 16 0-12-4-16-16-16Z"/>
  </g>

  <g filter="url(#softShadow)">
    <rect x="142" y="92" width="916" height="446" rx="42" fill="#fffdf9" opacity="0.86"/>
    <rect x="166" y="116" width="868" height="398" rx="32" fill="none" stroke="#e7dcff" stroke-width="2"/>
  </g>

  <text x="600" y="178" text-anchor="middle" font-family="Nunito, Inter, system-ui, sans-serif" font-size="30" font-weight="700" fill="#7c3aed">✨ A founding cohort from Chiibitsu Labs</text>
  <text x="600" y="278" text-anchor="middle" font-family="Fraunces, Georgia, serif" font-size="72" font-weight="600" letter-spacing="-1.8" fill="#2e2447">Futureproof Me</text>
  <text x="600" y="350" text-anchor="middle" font-family="Fraunces, Georgia, serif" font-size="50" font-weight="500" letter-spacing="-0.8" fill="#2e2447">one part of your life</text>
  <text x="600" y="414" text-anchor="middle" font-family="Caveat, Brush Script MT, cursive" font-size="58" font-weight="600" fill="#7c3aed" transform="rotate(-1.2 600 414)">by getting more human, not less.</text>

  <g transform="translate(326 464)">
    <rect width="548" height="58" rx="29" fill="url(#violet)"/>
    <text x="274" y="38" text-anchor="middle" font-family="Nunito, Inter, system-ui, sans-serif" font-size="25" font-weight="800" fill="#ffffff">10 weeks · small cohort · starts July 6</text>
  </g>
</svg>
